<svg id="Layer_1" data-name="Layer 1" xmlns="http://www.w3.org/2000/svg" viewBox="0 0 1762.15 116.15">
  <defs>
    <style>
      .cls-1 {
        fill: #fffae3;
        stroke: #fffae3;
        stroke-miterlimit: 10;
      }
    </style>
  </defs>
  <title>Estrelas-4</title>
  <polygon class="cls-1" points="8.78 92.37 13.08 93.08 8.78 93.78 8.08 98.08 7.37 93.78 3.08 93.08 7.37 92.37 8.08 88.08 8.78 92.37"/>
  <polygon class="cls-1" points="409.78 7.37 414.08 8.08 409.78 8.78 409.08 13.08 408.37 8.78 404.08 8.08 408.37 7.37 409.08 3.08 409.78 7.37"/>
  <polygon class="cls-1" points="683.78 96.37 688.08 97.08 683.78 97.78 683.08 102.08 682.37 97.78 678.08 97.08 682.37 96.37 683.08 92.08 683.78 96.37"/>
  <polygon class="cls-1" points="1185.78 67.37 1190.08 68.08 1185.78 68.78 1185.08 73.08 1184.37 68.78 1180.08 68.08 1184.37 67.37 1185.08 63.08 1185.78 67.37"/>
  <polygon class="cls-1" points="1752.21 39.95 1759.08 41.08 1752.21 42.21 1751.08 49.08 1749.94 42.21 1743.08 41.08 1749.94 39.95 1751.08 33.08 1752.21 39.95"/>
  <polygon class="cls-1" points="1024.78 107.37 1029.08 108.08 1024.78 108.78 1024.08 113.08 1023.37 108.78 1019.08 108.08 1023.37 107.37 1024.08 103.08 1024.78 107.37"/>
  <polygon class="cls-1" points="71.21 51.95 78.08 53.08 71.21 54.21 70.08 61.08 68.94 54.21 62.08 53.08 68.94 51.95 70.08 45.08 71.21 51.95"/>
  <polygon id="estrela" class="cls-1" points="327.21 60.95 334.08 62.08 327.21 63.21 326.08 70.08 324.94 63.21 318.08 62.08 324.94 60.95 326.08 54.08 327.21 60.95"/>
  <polygon class="cls-1" points="1356.21 12.95 1363.08 14.08 1356.21 15.21 1355.08 22.08 1353.94 15.21 1347.08 14.08 1353.94 12.95 1355.08 6.08 1356.21 12.95"/>
</svg>
