<svg id="Layer_1" data-name="Layer 1" xmlns="http://www.w3.org/2000/svg" viewBox="0 0 1763.15 217.15">
	<defs>
		<style>.cls-1{fill:#000;stroke:#000;stroke-miterlimit:10;}</style>
	</defs>

	<title>Estrelas-1</title>
	
	<polygon class="cls-1" points="56.5 7.65 59.08 8.08 56.5 8.5 56.08 11.08 55.65 8.5 53.08 8.08 55.65 7.65 56.08 5.08 56.5 7.65"/>
	<polygon class="cls-1" points="236.5 21.65 239.08 22.08 236.5 22.5 236.08 25.08 235.65 22.5 233.08 22.08 235.65 21.65 236.08 19.08 236.5 21.65"/>
	<polygon class="cls-1" points="143.78 82.37 148.08 83.08 143.78 83.78 143.08 88.08 142.37 83.78 138.08 83.08 142.37 82.37 143.08 78.08 143.78 82.37"/>
	<polygon class="cls-1" points="8.78 193.37 13.08 194.08 8.78 194.78 8.08 199.08 7.37 194.78 3.08 194.08 7.37 193.37 8.08 189.08 8.78 193.37"/>
	<polygon class="cls-1" points="558.78 85.37 563.08 86.08 558.78 86.78 558.08 91.08 557.37 86.78 553.08 86.08 557.37 85.37 558.08 81.08 558.78 85.37"/>
	<polygon class="cls-1" points="718.78 7.37 723.08 8.08 718.78 8.78 718.08 13.08 717.37 8.78 713.08 8.08 717.37 7.37 718.08 3.08 718.78 7.37"/>
	<polygon class="cls-1" points="962.78 7.37 967.08 8.08 962.78 8.78 962.08 13.08 961.37 8.78 957.08 8.08 961.37 7.37 962.08 3.08 962.78 7.37"/>
	<polygon class="cls-1" points="1251.78 74.37 1256.08 75.08 1251.78 75.78 1251.08 80.08 1250.37 75.78 1246.08 75.08 1250.37 74.37 1251.08 70.08 1251.78 74.37"/>
	<polygon class="cls-1" points="1436.78 125.37 1441.08 126.08 1436.78 126.78 1436.08 131.08 1435.37 126.78 1431.08 126.08 1435.37 125.37 1436.08 121.08 1436.78 125.37"/>
	<polygon class="cls-1" points="1585.78 29.37 1590.08 30.08 1585.78 30.78 1585.08 35.08 1584.37 30.78 1580.08 30.08 1584.37 29.37 1585.08 25.08 1585.78 29.37"/>
	<polygon class="cls-1" points="1739.78 111.37 1744.08 112.08 1739.78 112.78 1739.08 117.08 1738.37 112.78 1734.08 112.08 1738.37 111.37 1739.08 107.08 1739.78 111.37"/>
	<polygon class="cls-1" points="1344.78 79.37 1349.08 80.08 1344.78 80.78 1344.08 85.08 1343.37 80.78 1339.08 80.08 1343.37 79.37 1344.08 75.08 1344.78 79.37"/>
	<polygon class="cls-1" points="1753.21 204.94 1760.08 206.08 1753.21 207.21 1752.08 214.08 1750.94 207.21 1744.08 206.08 1750.94 204.94 1752.08 198.08 1753.21 204.94"/>
	<polygon class="cls-1" points="745.21 49.95 752.08 51.08 745.21 52.21 744.08 59.08 742.95 52.21 736.08 51.08 742.95 49.95 744.08 43.08 745.21 49.95"/>
	<polygon class="cls-1" points="1195.21 28.95 1202.08 30.08 1195.21 31.21 1194.08 38.08 1192.94 31.21 1186.08 30.08 1192.94 28.95 1194.08 22.08 1195.21 28.95"/>
	<polygon class="cls-1" points="174.21 173.94 181.08 175.08 174.21 176.21 173.08 183.08 171.94 176.21 165.08 175.08 171.94 173.94 173.08 167.08 174.21 173.94"/>
</svg>