<svg id="Layer_1" data-name="Layer 1" xmlns="http://www.w3.org/2000/svg" viewBox="0 0 1725.15 239.15">
  <defs>
    <style>
      .cls-1 {
        fill: #fffae3;
        stroke: #fffae3;
        stroke-miterlimit: 10;
      }
    </style>
  </defs>
  <title>Estrelas-3</title>
  <polygon class="cls-1" points="11.07 31.09 17.08 32.08 11.07 33.07 10.08 39.08 9.09 33.07 3.08 32.08 9.09 31.09 10.08 25.08 11.07 31.09"/>
  <polygon class="cls-1" points="108.78 126.37 113.08 127.08 108.78 127.78 108.08 132.08 107.37 127.78 103.08 127.08 107.37 126.37 108.08 122.08 108.78 126.37"/>
  <polygon class="cls-1" points="893.78 29.37 898.08 30.08 893.78 30.78 893.08 35.08 892.37 30.78 888.08 30.08 892.37 29.37 893.08 25.08 893.78 29.37"/>
  <polygon class="cls-1" points="1480.78 12.37 1485.08 13.08 1480.78 13.78 1480.08 18.08 1479.37 13.78 1475.08 13.08 1479.37 12.37 1480.08 8.08 1480.78 12.37"/>
  <polygon class="cls-1" points="1717.78 7.37 1722.08 8.08 1717.78 8.78 1717.08 13.08 1716.37 8.78 1712.08 8.08 1716.37 7.37 1717.08 3.08 1717.78 7.37"/>
  <polygon class="cls-1" points="497.78 148.37 502.08 149.08 497.78 149.78 497.08 154.08 496.37 149.78 492.08 149.08 496.37 148.37 497.08 144.08 497.78 148.37"/>
  <polygon class="cls-1" points="986.21 49.95 993.08 51.08 986.21 52.21 985.08 59.08 983.95 52.21 977.08 51.08 983.95 49.95 985.08 43.08 986.21 49.95"/>
  <polygon class="cls-1" points="1539.21 226.94 1546.08 228.08 1539.21 229.21 1538.08 236.08 1536.94 229.21 1530.08 228.08 1536.94 226.94 1538.08 220.08 1539.21 226.94"/>
  <polygon class="cls-1" points="1170.21 164.94 1177.08 166.08 1170.21 167.21 1169.08 174.08 1167.94 167.21 1161.08 166.08 1167.94 164.94 1169.08 158.08 1170.21 164.94"/>
  <polygon class="cls-1" points="599.21 226.94 606.08 228.08 599.21 229.21 598.08 236.08 596.95 229.21 590.08 228.08 596.95 226.94 598.08 220.08 599.21 226.94"/>
</svg>
